/* XPM */
static char * pipeline_xpm[] = {
"32 32 23 1",
" 	c None",
".	c #F17676",
"+	c #FF0000",
"@	c #7E0000",
"#	c #5A40DF",
"$	c #009400",
"%	c #351DB0",
"&	c #79F779",
"*	c #00FF00",
"=	c #695DA2",
"-	c #F7FC71",
";	c #F6FE8A",
">	c #F6FE88",
",	c #F7FC7A",
"'	c #F7FC79",
")	c #F6FF8E",
"!	c #FFF000",
"~	c #C3B800",
"{	c #BCB100",
"]	c #C7BC00",
"^	c #BBB000",
"/	c #BAAF00",
"(	c #BFB400",
"                                ",
"                                ",
"                                ",
"    .........                   ",
"   .+++++++++@                  ",
"   .+++++++++@                  ",
"   .+++++++++@                  ",
"   .+++++++++@     #     $      ",
"   .+++++++++@    #%#   &*$     ",
"   .+++++++++@   #%%#   &**$    ",
"   .+++++++++@  #%%%#  &***$    ",
"   .+++++++++@ =%%%%=  &****$   ",
"   .+++++++++@  ====  &*****$   ",
"   .+++++++++@        &******$  ",
"    @@@@@@@@@        &*******$  ",
"                     &********$ ",
"                    &*********$ ",
"                    &**********$",
"     -;>>,-        &***********$",
"    ')!!!))!        $$$$$$$$$$$ ",
"   ')!!!!!!!!                   ",
"  -)!!!!!!!!!                   ",
"  ,!!!!!!!!!!~          #       ",
"  >!!!!!!!!!!{         #%=      ",
"  >!!!!!!!!!!{       ##%%=      ",
"  ,!!!!!!!!!!~      #%%%%=      ",
"   )!!!!!!!!!]     #%%%%%=      ",
"   ')!!!!!!!^       =%%%%=      ",
"    '!!!!!/^         ==%%=      ",
"      !!{/(            ==       ",
"                                ",
"                                "};
